<svg width="40" height="40" viewBox="0 0 40 40" fill="none" xmlns="http://www.w3.org/2000/svg">
<rect width="40" height="40" fill="black"/>
<path d="M32.5812 20.1387L24.99 17.6087C24.5952 17.4769 24.2322 17.2643 23.9241 16.9845C23.6159 16.7048 23.3693 16.364 23.2 15.9837L20.2987 9.19999C20.2987 9.19999 20.2987 9.19124 20.2987 9.18749C20.0922 8.7241 19.7172 8.35655 19.2497 8.15928C18.7823 7.962 18.2574 7.94974 17.7812 8.12499L8.31625 11.5612C7.93091 11.7024 7.59813 11.9583 7.36276 12.2944C7.1274 12.6306 7.00079 13.0309 7 13.4412V28C7 28.5304 7.21071 29.0391 7.58579 29.4142C7.96086 29.7893 8.46957 30 9 30H34C34.5304 30 35.0391 29.7893 35.4142 29.4142C35.7893 29.0391 36 28.5304 36 28V24.8825C36.0001 23.833 35.6699 22.8102 35.0564 21.9588C34.4428 21.1074 33.5768 20.4706 32.5812 20.1387ZM18.465 9.99999L19.3538 12.0787L16.6587 13.06C16.4377 13.1402 16.252 13.2958 16.1342 13.4994C16.0165 13.703 15.9743 13.9416 16.015 14.1732C16.0558 14.4049 16.1769 14.6147 16.357 14.7659C16.5371 14.9171 16.7648 15 17 15C17.1165 14.9998 17.232 14.9791 17.3413 14.9387L20.1413 13.9212L20.7337 15.305L18.6587 16.055C18.4341 16.1327 18.2444 16.2879 18.1238 16.4927C18.0032 16.6976 17.9595 16.9387 18.0006 17.1729C18.0416 17.4071 18.1648 17.6189 18.348 17.7705C18.5311 17.9221 18.7623 18.0034 19 18C19.1165 17.9998 19.232 17.9791 19.3413 17.9387L21.5413 17.1387C21.7936 17.6033 22.1176 18.0251 22.5012 18.3887L20.6588 19.0587C20.4368 19.1384 20.2501 19.2939 20.1317 19.4978C20.0133 19.7017 19.9707 19.9409 20.0115 20.1731C20.0524 20.4054 20.174 20.6157 20.3548 20.767C20.5357 20.9183 20.7642 21.0008 21 21C21.1163 20.9996 21.2318 20.9794 21.3412 20.94L24.8412 19.6675L31.95 22.0362C32.4026 22.1876 32.8125 22.4447 33.1458 22.7862C33.4791 23.1277 33.726 23.5439 33.8662 24H9V13.4412L18.465 9.99999ZM9 28V26H34V28H9Z" fill="#FFFFFF"/>
</svg>
