<svg width="140" height="32" viewBox="0 0 140 32" fill="none" xmlns="http://www.w3.org/2000/svg">
<path d="M28.5812 16.1387L20.99 13.6087C20.5952 13.4769 20.2322 13.2643 19.9241 12.9845C19.6159 12.7048 19.3693 12.364 19.2 11.9837L16.2987 5.19999C16.2987 5.19999 16.2987 5.19124 16.2987 5.18749C16.0922 4.7241 15.7172 4.35655 15.2497 4.15928C14.7823 3.962 14.2574 3.94974 13.7812 4.12499L4.31625 7.56124C3.93091 7.70238 3.59813 7.95828 3.36276 8.29445C3.1274 8.63061 3.00079 9.03087 3 9.44124V24C3 24.5304 3.21071 25.0391 3.58579 25.4142C3.96086 25.7893 4.46957 26 5 26H30C30.5304 26 31.0391 25.7893 31.4142 25.4142C31.7893 25.0391 32 24.5304 32 24V20.8825C32.0001 19.833 31.6699 18.8102 31.0564 17.9588C30.4428 17.1074 29.5768 16.4706 28.5812 16.1387ZM14.465 5.99999L15.3538 8.07874L12.6587 9.05999C12.4377 9.14023 12.252 9.29582 12.1342 9.49942C12.0165 9.70302 11.9743 9.9416 12.015 10.1732C12.0558 10.4049 12.1769 10.6147 12.357 10.7659C12.5371 10.9171 12.7648 11 13 11C13.1165 10.9998 13.232 10.9791 13.3413 10.9387L16.1413 9.92124L16.7337 11.305L14.6587 12.055C14.4341 12.1327 14.2444 12.2879 14.1238 12.4927C14.0032 12.6976 13.9595 12.9387 14.0006 13.1729C14.0416 13.4071 14.1648 13.6189 14.348 13.7705C14.5311 13.9221 14.7623 14.0034 15 14C15.1165 13.9998 15.232 13.9791 15.3413 13.9387L17.5413 13.1387C17.7936 13.6033 18.1176 14.0251 18.5012 14.3887L16.6588 15.0587C16.4368 15.1384 16.2501 15.2939 16.1317 15.4978C16.0133 15.7017 15.9707 15.9409 16.0115 16.1731C16.0524 16.4054 16.174 16.6157 16.3548 16.767C16.5357 16.9183 16.7642 17.0008 17 17C17.1163 16.9996 17.2318 16.9794 17.3412 16.94L20.8412 15.6675L27.95 18.0362C28.4026 18.1876 28.8125 18.4447 29.1458 18.7862C29.4791 19.1277 29.726 19.5439 29.8662 20H5V9.44124L14.465 5.99999ZM5 24V22H30V24H5Z" fill="#FAFAFA"/>
<path d="M50.832 28.032C49.0827 28.032 47.408 27.7867 45.808 27.296C44.208 26.784 42.9387 26.1334 42 25.344L43.44 22.112C44.336 22.816 45.4453 23.4027 46.768 23.872C48.0907 24.3414 49.4453 24.576 50.832 24.576C52.0053 24.576 52.9547 24.448 53.68 24.192C54.4053 23.936 54.9387 23.5947 55.28 23.168C55.6213 22.72 55.792 22.2187 55.792 21.664C55.792 20.9814 55.5467 20.4374 55.056 20.032C54.5653 19.6054 53.9253 19.2747 53.136 19.04C52.368 18.784 51.504 18.5494 50.544 18.336C49.6053 18.1227 48.656 17.8774 47.696 17.6C46.7573 17.3014 45.8933 16.928 45.104 16.48C44.336 16.0107 43.7067 15.392 43.216 14.624C42.7253 13.856 42.48 12.8747 42.48 11.68C42.48 10.464 42.8 9.35468 43.44 8.35202C44.1013 7.32802 45.0933 6.51735 46.416 5.92002C47.76 5.30135 49.456 4.99202 51.504 4.99202C52.848 4.99202 54.1813 5.16268 55.504 5.50402C56.8267 5.84535 57.9787 6.33602 58.96 6.97602L57.648 10.208C56.6453 9.61068 55.6107 9.17335 54.544 8.89602C53.4773 8.59735 52.4533 8.44802 51.472 8.44802C50.32 8.44802 49.3813 8.58668 48.656 8.86402C47.952 9.14135 47.4293 9.50402 47.088 9.95202C46.768 10.4 46.608 10.912 46.608 11.488C46.608 12.1707 46.8427 12.7254 47.312 13.152C47.8027 13.5574 48.432 13.8774 49.2 14.112C49.9893 14.3467 50.864 14.5814 51.824 14.816C52.784 15.0294 53.7333 15.2747 54.672 15.552C55.632 15.8294 56.496 16.192 57.264 16.64C58.0533 17.088 58.6827 17.696 59.152 18.464C59.6427 19.232 59.888 20.2027 59.888 21.376C59.888 22.5707 59.5573 23.68 58.896 24.704C58.256 25.7067 57.264 26.5174 55.92 27.136C54.576 27.7334 52.88 28.032 50.832 28.032Z" fill="#FAFAFA"/>
<path d="M73.325 10.432C74.6903 10.432 75.9063 10.6987 76.973 11.232C78.061 11.7654 78.9143 12.5867 79.533 13.696C80.1517 14.784 80.461 16.192 80.461 17.92V27.712H76.461V18.432C76.461 16.9174 76.0983 15.7867 75.373 15.04C74.669 14.2934 73.677 13.92 72.397 13.92C71.4583 13.92 70.6263 14.112 69.901 14.496C69.1757 14.88 68.6103 15.456 68.205 16.224C67.821 16.9707 67.629 17.92 67.629 19.072V27.712H63.629V3.96802H67.629V12.6205C68.1115 12.0999 68.6875 11.6691 69.357 11.328C70.509 10.7307 71.8317 10.432 73.325 10.432Z" fill="#FAFAFA"/>
<path d="M93.2465 27.936C91.4972 27.936 89.9398 27.5627 88.5745 26.816C87.2092 26.048 86.1318 25.0027 85.3425 23.68C84.5532 22.3574 84.1585 20.8534 84.1585 19.168C84.1585 17.4614 84.5532 15.9574 85.3425 14.656C86.1318 13.3334 87.2092 12.2987 88.5745 11.552C89.9398 10.8054 91.4972 10.432 93.2465 10.432C95.0172 10.432 96.5852 10.8054 97.9505 11.552C99.3372 12.2987 100.415 13.3227 101.183 14.624C101.972 15.9254 102.367 17.44 102.367 19.168C102.367 20.8534 101.972 22.3574 101.183 23.68C100.415 25.0027 99.3372 26.048 97.9505 26.816C96.5852 27.5627 95.0172 27.936 93.2465 27.936ZM93.2465 24.512C94.2278 24.512 95.1025 24.2987 95.8705 23.872C96.6385 23.4454 97.2358 22.8267 97.6625 22.016C98.1105 21.2054 98.3345 20.256 98.3345 19.168C98.3345 18.0587 98.1105 17.1094 97.6625 16.32C97.2358 15.5094 96.6385 14.8907 95.8705 14.464C95.1025 14.0374 94.2385 13.824 93.2785 13.824C92.2972 13.824 91.4225 14.0374 90.6545 14.464C89.9078 14.8907 89.3105 15.5094 88.8625 16.32C88.4145 17.1094 88.1905 18.0587 88.1905 19.168C88.1905 20.256 88.4145 21.2054 88.8625 22.016C89.3105 22.8267 89.9078 23.4454 90.6545 23.872C91.4225 24.2987 92.2865 24.512 93.2465 24.512Z" fill="#FAFAFA"/>
<path d="M131.378 27.936C129.948 27.936 128.572 27.7547 127.25 27.392C125.948 27.008 124.914 26.5494 124.146 26.016L125.682 22.976C126.45 23.4667 127.367 23.872 128.434 24.192C129.5 24.512 130.567 24.672 131.634 24.672C132.892 24.672 133.799 24.5014 134.354 24.16C134.93 23.8187 135.218 23.36 135.218 22.784C135.218 22.3147 135.026 21.9627 134.642 21.728C134.258 21.472 133.756 21.28 133.138 21.152C132.519 21.024 131.826 20.9067 131.058 20.8C130.311 20.6934 129.554 20.5547 128.786 20.384C128.039 20.192 127.356 19.9254 126.738 19.584C126.119 19.2214 125.618 18.7414 125.234 18.144C124.85 17.5467 124.658 16.7574 124.658 15.776C124.658 14.688 124.967 13.7494 125.586 12.96C126.204 12.1494 127.068 11.5307 128.178 11.104C129.308 10.656 130.642 10.432 132.178 10.432C133.33 10.432 134.492 10.56 135.666 10.816C136.839 11.072 137.81 11.4347 138.578 11.904L137.042 14.944C136.231 14.4534 135.41 14.1227 134.578 13.952C133.767 13.76 132.956 13.664 132.146 13.664C130.93 13.664 130.023 13.8454 129.426 14.208C128.85 14.5707 128.562 15.0294 128.562 15.584C128.562 16.096 128.754 16.48 129.138 16.736C129.522 16.992 130.023 17.1947 130.642 17.344C131.26 17.4934 131.943 17.6214 132.69 17.728C133.458 17.8134 134.215 17.952 134.962 18.144C135.708 18.336 136.391 18.6027 137.01 18.944C137.65 19.264 138.162 19.7227 138.546 20.32C138.93 20.9174 139.122 21.696 139.122 22.656C139.122 23.7227 138.802 24.6507 138.162 25.44C137.543 26.2294 136.658 26.848 135.506 27.296C134.354 27.7227 132.978 27.936 131.378 27.936Z" fill="#FAFAFA"/>
<path fill-rule="evenodd" clip-rule="evenodd" d="M114.223 27.936C112.325 27.936 110.661 27.5627 109.231 26.816C107.823 26.048 106.725 25.0027 105.935 23.68C105.167 22.3574 104.784 20.8534 104.784 19.168C104.784 17.4614 105.157 15.9574 105.903 14.656C106.671 13.3334 107.717 12.2987 109.039 11.552C110.383 10.8054 111.909 10.432 113.616 10.432C115.28 10.432 116.762 10.7947 118.063 11.52C119.365 12.2454 120.389 13.2694 121.135 14.592C121.882 15.9147 122.256 17.472 122.256 19.264C122.256 19.4347 122.245 19.6267 122.223 19.84C122.223 20.0534 122.213 20.256 122.191 20.448H108.784C108.893 21.0386 109.096 21.5826 109.391 22.08C109.861 22.8694 110.522 23.4774 111.375 23.904C112.229 24.3307 113.21 24.544 114.319 24.544C115.279 24.544 116.143 24.3947 116.911 24.096C117.679 23.7974 118.362 23.328 118.959 22.688L121.104 25.152C120.336 26.048 119.365 26.7414 118.191 27.232C117.039 27.7014 115.717 27.936 114.223 27.936ZM116.144 14.272C116.89 14.6987 117.477 15.2854 117.903 16.032C118.205 16.56 118.395 17.1467 118.473 17.792H108.748C108.836 17.1511 109.018 16.5751 109.295 16.064C109.722 15.296 110.298 14.6987 111.023 14.272C111.77 13.8454 112.634 13.632 113.616 13.632C114.576 13.632 115.418 13.8454 116.144 14.272Z" fill="#FAFAFA"/>
</svg>
